<svg xmlns="http://www.w3.org/2000/svg" width="800" height="800" viewBox="-0.5 0 104 104"><g fill="none" fill-rule="evenodd" stroke="#263238" stroke-linecap="round" stroke-linejoin="round" stroke-width="3.5"><path fill="#A5D2E8" d="M15.11 101.158s-4.962 1.595-9.693-3.183c-4.73-4.777-3.151-9.788-3.151-9.788l50.118-55.494a26.896 26.896 0 0 0 6.646 11.139 26.533 26.533 0 0 0 11.03 6.711l-54.95 50.615h0Z"/><path fill="#E2F3FB" d="m47.71 53.263-3.746 3.784a1.496 1.496 0 0 0 0 2.1 1.46 1.46 0 0 0 2.08 0l3.747-3.783c.574-.58.574-1.52 0-2.1a1.46 1.46 0 0 0-2.08 0h0Z"/><path fill="#FFF" d="M59.007 44.255c9.572 9.572 25.167 9.495 34.834-.171 9.666-9.667 9.743-25.262.171-34.834C84.441-.322 68.845-.245 59.18 9.42c-9.667 9.667-9.744 25.262-.172 34.834Z"/><path fill="#EBF1F5" d="M96.86 40.436c6.531-9.613 5.595-22.743-2.848-31.186C85.562.8 72.418-.13 62.802 6.418a4.884 4.884 0 0 1 1.553 1.059L96.253 39.69c.23.232.433.483.607.746h0Zm-6.883 6.812c-9.593 6.372-22.59 5.387-30.97-2.993-8.518-8.518-9.395-21.808-2.67-31.444.238.607.6 1.176 1.086 1.667L89.32 46.69c.206.208.426.394.657.557h0Z"/></g></svg>